<svg width="143" height="48" viewBox="0 0 143 48" fill="none" xmlns="http://www.w3.org/2000/svg">
<g clip-path="url(#clip0_240_8709)">
<path d="M45.9446 0.432149H0.813959C0.67927 0.431087 0.546447 0.463669 0.42754 0.52694C0.308632 0.590211 0.207402 0.682167 0.133034 0.794469C0.0586654 0.90677 0.0135117 1.03586 0.00166873 1.17003C-0.0101742 1.3042 0.0116685 1.43921 0.0652153 1.5628L12.216 30.5678C12.2788 30.7161 12.3837 30.8426 12.5176 30.9319C12.6516 31.0212 12.8087 31.0694 12.9697 31.0703C13.1303 31.0703 13.2873 31.0226 13.4206 30.9331C13.5539 30.8436 13.6576 30.7164 13.7185 30.5678L23.3818 7.50753L33.0451 30.5678C33.106 30.7164 33.2096 30.8436 33.343 30.9331C33.4763 31.0226 33.6333 31.0703 33.7939 31.0703C33.9548 31.0694 34.112 31.0212 34.246 30.9319C34.3799 30.8426 34.4848 30.7161 34.5476 30.5678L46.6984 1.5628C46.7521 1.43882 46.7739 1.30335 46.7618 1.16877C46.7498 1.03418 46.7042 0.904767 46.6292 0.792336C46.5543 0.679904 46.4523 0.588037 46.3327 0.52512C46.2132 0.462203 46.0797 0.43024 45.9446 0.432149Z" fill="#303030"/>
<path d="M92.8945 29.6885L81.8996 18.3568C83.9458 17.9044 85.7794 16.7746 87.1037 15.1504C88.4279 13.5261 89.1651 11.5025 89.196 9.40705C89.196 4.32162 84.9146 0.185944 79.6483 0.185944C79.4328 0.187262 79.2265 0.273453 79.0741 0.425836C78.9217 0.578219 78.8355 0.784516 78.8342 1.00001V30.2513C78.8342 30.4672 78.92 30.6742 79.0727 30.8269C79.2253 30.9796 79.4324 31.0653 79.6483 31.0653H92.3116C92.4722 31.0653 92.6292 31.0176 92.7625 30.9281C92.8958 30.8386 92.9995 30.7114 93.0604 30.5628C93.1243 30.4166 93.1427 30.2544 93.1131 30.0975C93.0836 29.9407 93.0074 29.7964 92.8945 29.6834" fill="#303030"/>
<path d="M69.6483 18.6231H52.7538C52.5379 18.6231 52.3308 18.7089 52.1781 18.8615C52.0255 19.0142 51.9397 19.2213 51.9397 19.4372V30.2512C51.939 30.3583 51.9596 30.4645 52.0003 30.5636C52.041 30.6626 52.1009 30.7526 52.1767 30.8284C52.2524 30.9041 52.3424 30.964 52.4415 31.0047C52.5405 31.0454 52.6467 31.066 52.7538 31.0653H69.6483C69.7553 31.066 69.8615 31.0454 69.9606 31.0047C70.0596 30.964 70.1496 30.9041 70.2254 30.8284C70.3011 30.7526 70.361 30.6626 70.4017 30.5636C70.4424 30.4645 70.463 30.3583 70.4623 30.2512V19.4372C70.4623 19.2213 70.3766 19.0142 70.2239 18.8615C70.0712 18.7089 69.8642 18.6231 69.6483 18.6231Z" fill="#303030"/>
<path d="M69.6483 0.432175H52.7538C52.6467 0.431508 52.5405 0.452109 52.4415 0.492783C52.3424 0.533458 52.2524 0.593397 52.1767 0.669123C52.1009 0.74485 52.041 0.834858 52.0003 0.933926C51.9596 1.033 51.939 1.13915 51.9397 1.24625V12.0603C51.9397 12.2762 52.0255 12.4833 52.1781 12.636C52.3308 12.7886 52.5379 12.8744 52.7538 12.8744H69.6483C69.8642 12.8744 70.0712 12.7886 70.2239 12.636C70.3766 12.4833 70.4623 12.2762 70.4623 12.0603V1.24625C70.463 1.13915 70.4424 1.033 70.4017 0.933926C70.361 0.834858 70.3011 0.74485 70.2254 0.669123C70.1496 0.593397 70.0596 0.533458 69.9606 0.492783C69.8615 0.452109 69.7553 0.431508 69.6483 0.432175Z" fill="#303030"/>
<path d="M12.2764 38.0653H10.4171L8.73869 43.5427L6.92965 38.0452H5.42211L3.58291 43.5427L1.90452 38.0653H0L2.75879 46.206H4.30653L6.13065 40.9196L7.9598 46.206H9.50251L12.2764 38.0653ZM18.809 43.0905C18.8127 42.6559 18.7284 42.2251 18.5611 41.8239C18.3939 41.4228 18.1472 41.0597 17.8359 40.7564C17.5247 40.4531 17.1553 40.2159 16.7499 40.0592C16.3446 39.9024 15.9117 39.8293 15.4774 39.8442C15.0436 39.8288 14.611 39.9005 14.2054 40.0551C13.7998 40.2097 13.4293 40.4441 13.1159 40.7444C12.8024 41.0448 12.5524 41.4049 12.3806 41.8036C12.2088 42.2022 12.1187 42.6313 12.1156 43.0653C12.118 43.4966 12.207 43.9229 12.3772 44.3191C12.5475 44.7153 12.7955 45.0732 13.1067 45.3718C13.4179 45.6703 13.7858 45.9033 14.1888 46.057C14.5917 46.2106 15.0213 46.2818 15.4523 46.2663C15.8838 46.2804 16.3139 46.2084 16.7173 46.0544C17.1207 45.9005 17.4894 45.6677 17.8019 45.3697C18.1144 45.0718 18.3644 44.7145 18.5373 44.3189C18.7102 43.9232 18.8026 43.4971 18.809 43.0653M17.0754 43.0653C17.09 43.2836 17.0592 43.5026 16.9849 43.7083C16.9107 43.9141 16.7946 44.1023 16.6439 44.2609C16.4933 44.4196 16.3114 44.5453 16.1098 44.6301C15.9081 44.7149 15.6911 44.757 15.4724 44.7538C15.252 44.7513 15.0344 44.7046 14.8324 44.6165C14.6304 44.5284 14.4481 44.4007 14.2963 44.241C14.1445 44.0812 14.0263 43.8926 13.9486 43.6864C13.871 43.4801 13.8355 43.2604 13.8442 43.0402C13.8296 42.8215 13.8605 42.6021 13.9351 42.396C14.0096 42.1899 14.1262 42.0015 14.2773 41.8428C14.4285 41.684 14.611 41.5584 14.8133 41.4739C15.0155 41.3894 15.2331 41.3478 15.4523 41.3518C15.6724 41.3536 15.8899 41.3997 16.0919 41.4872C16.2939 41.5747 16.4762 41.702 16.6281 41.8613C16.7799 42.0207 16.8982 42.2089 16.9759 42.4149C17.0536 42.6209 17.0892 42.8404 17.0804 43.0603L17.0754 43.0653ZM23.5779 41.6583V39.8442C23.1426 39.8113 22.7093 39.9285 22.3499 40.1763C21.9906 40.4241 21.727 40.7875 21.603 41.206V39.9598H19.8543V46.1508H21.608V43.8643C21.608 42.3869 22.3266 41.6834 23.4925 41.6834L23.5779 41.6583ZM26.7437 37.6935H24.9899V46.1508H26.7487L26.7437 37.6935ZM34.3869 46.1508V37.7186H32.6382V40.7689C32.4109 40.4749 32.1181 40.2382 31.783 40.0777C31.448 39.9171 31.08 39.8372 30.7085 39.8442C29.2412 39.8442 27.8894 40.9749 27.8894 43.0452C27.8894 45.1156 29.2663 46.2462 30.7085 46.2462C31.0885 46.2531 31.4642 46.1647 31.8012 45.9892C32.1383 45.8136 32.426 45.5565 32.6382 45.2412V46.1307L34.3869 46.1508ZM32.6533 43.0653C32.6533 43.4652 32.4944 43.8486 32.2117 44.1313C31.929 44.414 31.5456 44.5729 31.1457 44.5729C30.7459 44.5729 30.3625 44.414 30.0797 44.1313C29.797 43.8486 29.6382 43.4652 29.6382 43.0653C29.6382 42.6655 29.797 42.2821 30.0797 41.9994C30.3625 41.7166 30.7459 41.5578 31.1457 41.5578C31.5456 41.5578 31.929 41.7166 32.2117 41.9994C32.4944 42.2821 32.6533 42.6655 32.6533 43.0653ZM46.4472 46.1508V38.0653H44.6683V41.2663H41.392V38.0653H39.6131V46.1508H41.392V42.9045H44.6683V46.1508H46.4472ZM53.2965 46.1508V42.5578C53.2965 40.8844 52.4523 39.8895 50.5377 39.8895C49.7092 39.8717 48.8876 40.0436 48.1357 40.392L48.5729 41.7337C49.1152 41.5118 49.6955 41.3975 50.2814 41.397C51.1608 41.397 51.6131 41.804 51.6131 42.5276V42.6332C51.129 42.4622 50.6188 42.3771 50.1055 42.3819C48.6382 42.3819 47.593 43.005 47.593 44.3518V44.3668C47.593 45.593 48.5528 46.2613 49.7186 46.2613C50.0687 46.2762 50.4177 46.2136 50.7408 46.0781C51.0639 45.9426 51.3532 45.7375 51.5879 45.4774V46.1457L53.2965 46.1508ZM51.6332 43.9699C51.6332 44.603 51.0804 45.0553 50.2613 45.0553C49.6935 45.0553 49.3015 44.7789 49.3015 44.3015C49.3015 43.7437 49.7638 43.4472 50.5126 43.4472C50.8983 43.4432 51.2805 43.522 51.6332 43.6784V43.9699ZM61.3116 43.0653C61.3116 40.995 59.9397 39.8643 58.4925 39.8643C58.1132 39.8574 57.7382 39.9458 57.402 40.1214C57.0657 40.297 56.7789 40.5541 56.5678 40.8694V39.9598H54.809V48H56.5678V45.3417C56.795 45.6383 57.0893 45.8767 57.4264 46.0374C57.7636 46.1981 58.1341 46.2766 58.5075 46.2663C59.9749 46.2663 61.3266 45.1357 61.3266 43.0653M59.5729 43.0653C59.5729 43.4652 59.414 43.8486 59.1313 44.1313C58.8486 44.414 58.4651 44.5729 58.0653 44.5729C57.6655 44.5729 57.2821 44.414 56.9993 44.1313C56.7166 43.8486 56.5578 43.4652 56.5578 43.0653C56.5578 42.6655 56.7166 42.2821 56.9993 41.9994C57.2821 41.7166 57.6655 41.5578 58.0653 41.5578C58.4651 41.5578 58.8486 41.7166 59.1313 41.9994C59.414 42.2821 59.5729 42.6655 59.5729 43.0653ZM68.8894 43.0653C68.8894 40.995 67.5176 39.8643 66.0754 39.8643C65.6953 39.857 65.3195 39.9452 64.9824 40.1208C64.6452 40.2964 64.3576 40.5538 64.1457 40.8694V39.9598H62.3869V48H64.1457V45.3417C64.3694 45.6321 64.6573 45.8668 64.9868 46.0272C65.3164 46.1876 65.6787 46.2695 66.0452 46.2663C67.5075 46.2663 68.8593 45.1357 68.8593 43.0653M67.1055 43.0653C67.1055 43.4652 66.9467 43.8486 66.664 44.1313C66.3813 44.414 65.9978 44.5729 65.598 44.5729C65.1982 44.5729 64.8147 44.414 64.532 44.1313C64.2493 43.8486 64.0904 43.4652 64.0904 43.0653C64.0904 42.6655 64.2493 42.2821 64.532 41.9994C64.8147 41.7166 65.1982 41.5578 65.598 41.5578C65.9978 41.5578 66.3813 41.7166 66.664 41.9994C66.9467 42.2821 67.1055 42.6655 67.1055 43.0653ZM71.804 37.7186H69.9598V39.2814H71.804V37.7186ZM71.7588 39.9598H70.005V46.1508H71.7588V39.9598ZM79.1105 46.1508V42.1307C79.1105 40.7086 78.3367 39.8292 77.01 39.8292C76.648 39.8329 76.2926 39.9268 75.9759 40.1022C75.6592 40.2777 75.3912 40.5292 75.196 40.8342V39.9598H73.4422V46.1508H75.196V42.6985C75.196 41.8643 75.6231 41.4372 76.2914 41.4372C76.9598 41.4372 77.3568 41.8643 77.3568 42.6985V46.1508H79.1105ZM86.412 43.2312C86.412 41.4774 85.4623 39.8694 83.397 39.8694C82.982 39.8716 82.5718 39.9577 82.191 40.1225C81.8101 40.2872 81.4665 40.5272 81.1807 40.828C80.8948 41.1288 80.6728 41.4843 80.5277 41.8731C80.3827 42.2619 80.3177 42.6759 80.3367 43.0905C80.3499 43.7539 80.5649 44.3976 80.953 44.9358C81.3411 45.474 81.8839 45.8813 82.5092 46.1034C83.1345 46.3255 83.8126 46.3518 84.4533 46.1789C85.0939 46.0061 85.6667 45.6422 86.0955 45.1357L85.0904 44.2462C84.8962 44.4498 84.6621 44.6111 84.4027 44.72C84.1433 44.829 83.8642 44.8832 83.5829 44.8794C83.226 44.9013 82.8738 44.7893 82.595 44.5653C82.3162 44.3414 82.131 44.0216 82.0754 43.6684H86.3819C86.3819 43.5076 86.407 43.402 86.407 43.2312M84.6935 42.5729H82.0502C82.1909 41.7739 82.6633 41.2563 83.392 41.2563C83.7381 41.2616 84.0684 41.4024 84.3117 41.6486C84.5551 41.8948 84.6922 42.2267 84.6935 42.5729ZM92.2311 44.2663C92.2311 43.1357 91.2261 42.7186 90.3618 42.4271C89.6935 42.196 89.1055 42.0352 89.1055 41.6885C89.1055 41.4422 89.3216 41.2613 89.7487 41.2613C90.3474 41.3122 90.924 41.5108 91.4271 41.8392L92.0955 40.6231C91.4087 40.1698 90.6067 39.9222 89.7839 39.9096C88.5377 39.9096 87.5226 40.6131 87.5226 41.8694C87.5226 43.0704 88.5025 43.4774 89.3668 43.7287C90.0502 43.9347 90.6533 44.0653 90.6533 44.4473C90.6533 44.7236 90.4221 44.9096 89.9095 44.9096C89.1994 44.8682 88.519 44.6104 87.9598 44.1709L87.211 45.3266C87.9665 45.9254 88.9004 46.2544 89.8643 46.2613C91.206 46.2613 92.2311 45.6382 92.2311 44.2513M97.9146 44.2513C97.9146 43.1206 96.9095 42.7035 96.0452 42.4121C95.3769 42.1809 94.7839 42.0201 94.7839 41.6734C94.7839 41.4271 95.005 41.2462 95.4321 41.2462C96.0292 41.2973 96.6042 41.4959 97.1055 41.8241L97.7789 40.6081C97.0919 40.1552 96.29 39.9077 95.4673 39.8945C94.2211 39.8945 93.201 40.598 93.201 41.8543C93.201 43.0553 94.206 43.4623 95.0502 43.7136C95.7337 43.9196 96.3316 44.0503 96.3316 44.4322C96.3316 44.7086 96.1005 44.8945 95.593 44.8945C94.8827 44.8538 94.2021 44.5959 93.6432 44.1558L92.8894 45.3116C93.647 45.91 94.5824 46.2389 95.5477 46.2462C96.8894 46.2462 97.9146 45.6231 97.9146 44.2362M109.809 46.1206L107.834 43.2312C108.359 43.0608 108.813 42.7225 109.126 42.2684C109.44 41.8143 109.595 41.2697 109.568 40.7186C109.568 39.0553 108.422 38.0503 106.518 38.0503H102.829V46.1508H104.608V43.5628H106.005L107.754 46.1508L109.809 46.1206ZM107.754 40.8493C107.754 41.5327 107.251 41.995 106.392 41.995H104.593V39.6734H106.357C107.226 39.6734 107.754 40.0653 107.754 40.8292V40.8493ZM116.407 43.2312C116.407 41.4774 115.457 39.8694 113.392 39.8694C112.977 39.8716 112.567 39.9577 112.186 40.1225C111.805 40.2872 111.461 40.5272 111.176 40.828C110.89 41.1288 110.668 41.4843 110.523 41.8731C110.378 42.2619 110.313 42.6759 110.332 43.0905C110.346 43.7538 110.562 44.3969 110.951 44.9346C111.34 45.4722 111.883 45.879 112.508 46.1008C113.133 46.3227 113.811 46.3492 114.452 46.1768C115.093 46.0045 115.666 45.6414 116.095 45.1357L115.09 44.2462C114.896 44.4498 114.662 44.6111 114.403 44.72C114.143 44.829 113.864 44.8832 113.583 44.8794C113.226 44.9013 112.874 44.7893 112.595 44.5653C112.316 44.3414 112.131 44.0216 112.075 43.6684H116.382C116.382 43.5076 116.407 43.402 116.407 43.2312ZM114.693 42.5729H112.05C112.191 41.7739 112.663 41.2563 113.392 41.2563C113.738 41.2616 114.068 41.4024 114.312 41.6486C114.555 41.8948 114.692 42.2267 114.693 42.5729ZM124.211 43.0754C124.211 41.005 122.839 39.8744 121.392 39.8744C121.013 39.8674 120.638 39.9558 120.301 40.1314C119.965 40.307 119.678 40.5642 119.467 40.8794V39.9598H117.709V48H119.467V45.3417C119.693 45.6362 119.985 45.8733 120.319 46.0339C120.654 46.1946 121.021 46.2742 121.392 46.2663C122.859 46.2663 124.211 45.1357 124.211 43.0653M122.457 43.0653C122.457 43.4652 122.298 43.8486 122.016 44.1313C121.733 44.414 121.35 44.5729 120.95 44.5729C120.55 44.5729 120.166 44.414 119.884 44.1313C119.601 43.8486 119.442 43.4652 119.442 43.0653C119.442 42.6655 119.601 42.2821 119.884 41.9994C120.166 41.7166 120.55 41.5578 120.95 41.5578C121.35 41.5578 121.733 41.7166 122.016 41.9994C122.298 42.2821 122.457 42.6655 122.457 43.0653ZM131.905 43.0653C131.871 42.1995 131.503 41.3803 130.879 40.7796C130.255 40.1789 129.422 39.8433 128.555 39.8433C127.689 39.8433 126.856 40.1789 126.232 40.7796C125.607 41.3803 125.24 42.1995 125.206 43.0653C125.208 43.4966 125.297 43.9229 125.468 44.3191C125.638 44.7153 125.886 45.0732 126.197 45.3718C126.508 45.6703 126.876 45.9033 127.279 46.057C127.682 46.2106 128.112 46.2818 128.543 46.2663C128.977 46.2811 129.409 46.2088 129.815 46.0536C130.221 45.8984 130.591 45.6635 130.904 45.3628C131.218 45.0621 131.468 44.7016 131.64 44.3027C131.811 43.9038 131.901 43.4745 131.905 43.0402M130.171 43.0402C130.185 43.2585 130.155 43.4774 130.08 43.6832C130.006 43.889 129.89 44.0771 129.739 44.2358C129.589 44.3944 129.407 44.5202 129.205 44.605C129.004 44.6898 128.787 44.7319 128.568 44.7287C128.347 44.7261 128.13 44.6795 127.928 44.5914C127.726 44.5033 127.544 44.3756 127.392 44.2158C127.24 44.0561 127.122 43.8675 127.044 43.6613C126.966 43.455 126.931 43.2353 126.94 43.0151C126.929 42.7976 126.962 42.5801 127.039 42.3762C127.116 42.1724 127.234 41.9866 127.386 41.8305C127.538 41.6744 127.72 41.5513 127.922 41.4689C128.124 41.3865 128.34 41.3466 128.558 41.3518C128.778 41.3536 128.995 41.3997 129.197 41.4872C129.399 41.5747 129.582 41.702 129.734 41.8613C129.885 42.0207 130.004 42.2089 130.081 42.4149C130.159 42.6209 130.195 42.8404 130.186 43.0603L130.171 43.0402ZM136.673 41.6332V39.8442C136.238 39.8113 135.805 39.9285 135.445 40.1763C135.086 40.4241 134.822 40.7875 134.698 41.206V39.9598H132.945V46.1508H134.698V43.8643C134.698 42.3869 135.412 41.6834 136.583 41.6834L136.673 41.6332ZM141.492 45.8744V44.4673C141.228 44.6137 140.93 44.6898 140.628 44.6885C140.231 44.6885 140.06 44.4925 140.06 44.0854V41.4623H141.518V39.9548H140.06V38.3769H138.307V39.9598H137.568V41.4674H138.307V44.402C138.307 45.8342 139.03 46.2613 140.106 46.2613C140.593 46.274 141.074 46.1485 141.492 45.8995" fill="#303030"/>
<path d="M126.884 31.4221C129.998 31.449 133.049 30.5503 135.651 28.8401C138.253 27.1299 140.288 24.6853 141.498 21.8165C142.708 18.9477 143.039 15.784 142.448 12.727C141.857 9.66997 140.371 6.85741 138.179 4.64623C135.987 2.43505 133.188 0.924952 130.136 0.307563C127.084 -0.309827 123.918 -0.00667022 121.039 1.17856C118.159 2.36379 115.697 4.37766 113.965 6.96461C112.232 9.55155 111.307 12.5949 111.307 15.7085C111.297 17.7634 111.692 19.8002 112.47 21.7022C113.247 23.6043 114.392 25.3345 115.839 26.7938C117.286 28.2532 119.006 29.4131 120.901 30.2072C122.796 31.0014 124.83 31.4142 126.884 31.4221Z" fill="#93358C"/>
<path d="M105.804 0.432159H97.5025C96.9474 0.432159 96.4974 0.882124 96.4974 1.43718V30.0653C96.4974 30.6204 96.9474 31.0704 97.5025 31.0704H105.804C106.359 31.0704 106.809 30.6204 106.809 30.0653V1.43718C106.809 0.882124 106.359 0.432159 105.804 0.432159Z" fill="#93358C"/>
</g>
<defs>
<clipPath id="clip0_240_8709">
<rect width="142.447" height="48" fill="white"/>
</clipPath>
</defs>
</svg>
